<svg fill="none" xmlns="http://www.w3.org/2000/svg" viewBox="0 0 13 14"><path d="m11.539 4.53.185.726a.75.75 0 0 0 .565-.727h-.75Zm.75-3.53a.75.75 0 1 0-1.5 0h1.5Zm-3.71 3.508a.75.75 0 1 0 .37 1.454l-.37-1.454Zm4.263 4.444a.75.75 0 1 0-1.452-.374l1.452.374ZM6.647 12.25A4.897 4.897 0 0 1 1.75 7.353H.25a6.397 6.397 0 0 0 6.397 6.397v-1.5ZM1.75 7.353a4.897 4.897 0 0 1 4.897-4.897v-1.5A6.397 6.397 0 0 0 .25 7.353h1.5Zm4.897-4.897c1.812 0 3.395.983 4.242 2.449l1.299-.751A6.395 6.395 0 0 0 6.648.956v1.5Zm5.642 2.073V1h-1.5v3.53h1.5Zm-.935-.726-2.774.705.37 1.454 2.774-.706-.37-1.453Zm.036 4.775a4.9 4.9 0 0 1-4.743 3.672v1.5a6.4 6.4 0 0 0 6.195-4.798l-1.452-.374Z" fill="currentColor"/></svg>