<svg fill="none" xmlns="http://www.w3.org/2000/svg" viewBox="0 0 42 42"><path d="M20.973 13.133c.446-1.896 4.862-6.64 6.969-5.057 2.453 1.9-.408 5.716-1.416 7.192 0 0-.201-2.043-1.81-3.894a81.192 81.192 0 0 0-3.162 2.154.374.374 0 0 1-.559-.174.393.393 0 0 1-.022-.221Zm1.8 2.863a.358.358 0 0 0-.202.273.382.382 0 0 0 .048.266c.048.08.123.138.211.164a78.8 78.8 0 0 1 3.624 1.183c-.422 2.433-1.862 3.864-1.862 3.864 1.761-.117 6.47-.21 6.407-3.351-.09-2.663-6.489-3.225-8.226-2.4Zm-1.08 3.214a.364.364 0 0 0-.417.064.377.377 0 0 0-.087.42c.317.802.85 2.165 1.349 3.625-2.136 1.178-4.133.919-4.133.919 1.185 1.329 4.19 5.022 6.561 3.02 1.992-1.73-1.555-7.178-3.273-8.047Zm-3.144 1.144a.369.369 0 0 0-.216-.264.359.359 0 0 0-.47.161 80.286 80.286 0 0 1-1.949 3.327c-2.232-.967-3.278-2.721-3.278-2.721-.283 1.774-1.253 6.469 1.766 7.114 2.568.508 4.55-5.712 4.147-7.617Zm-2.832-1.798a.388.388 0 0 0-.088-.554.364.364 0 0 0-.262-.057c-.84.137-2.266.357-3.773.523-.648-2.384.048-4.304.048-4.304-1.54.874-5.75 3.029-4.367 5.828 1.209 2.365 7.223.069 8.442-1.436Zm-.389-3.376a.355.355 0 0 0 .303-.152.386.386 0 0 0-.048-.508 72.598 72.598 0 0 1-2.75-2.677c1.43-1.998 3.34-2.638 3.34-2.638-1.632-.684-5.908-2.702-7.2.151-1.065 2.433 4.44 5.794 6.355 5.824Zm2.664-2.262a.371.371 0 0 0 .246-.106.384.384 0 0 0 .114-.246c.053-.865.168-2.326.346-3.86 2.428-.107 4.108 1.016 4.108 1.016-.49-1.724-1.603-6.385-4.598-5.643-2.534.67-1.69 7.148-.523 8.697a.374.374 0 0 0 .307.142Z" fill="url(#a)"/><path d="M1.856 40 .214 34.182h1.133l1.048 4.275h.054l1.12-4.275H4.6l1.122 4.278h.051l1.049-4.278h1.133L6.313 40h-1.04l-1.165-4.082h-.045L2.895 40h-1.04Zm11.636-2.91c0 .628-.117 1.165-.352 1.612a2.494 2.494 0 0 1-.955 1.022 2.639 2.639 0 0 1-1.366.356c-.51 0-.966-.119-1.37-.356a2.54 2.54 0 0 1-.954-1.025c-.233-.447-.35-.983-.35-1.608 0-.627.117-1.163.35-1.608.235-.447.553-.789.955-1.026a2.66 2.66 0 0 1 1.369-.355c.51 0 .965.119 1.366.355.404.237.722.579.955 1.026.235.445.352.981.352 1.608Zm-1.06 0c0-.44-.069-.813-.207-1.116a1.536 1.536 0 0 0-.568-.69 1.506 1.506 0 0 0-.838-.236c-.316 0-.596.079-.838.236a1.554 1.554 0 0 0-.571.69c-.136.304-.205.676-.205 1.117 0 .441.069.814.205 1.12.138.302.328.532.57.69.243.155.523.232.839.232.316 0 .596-.077.838-.232.242-.158.432-.388.568-.69.139-.306.208-.679.208-1.12ZM14.41 40v-5.818h2.181c.448 0 .823.078 1.125.233.305.155.536.373.69.653.158.279.237.603.237.975 0 .373-.08.697-.239.971a1.58 1.58 0 0 1-.696.634c-.307.147-.684.221-1.13.221h-1.555v-.875h1.412c.262 0 .476-.036.642-.108a.764.764 0 0 0 .37-.32c.081-.143.122-.317.122-.523 0-.207-.04-.383-.122-.529a.777.777 0 0 0-.373-.335c-.166-.078-.381-.117-.644-.117h-.966V40H14.41Zm3.005-2.636L18.854 40H17.68l-1.415-2.636h1.15ZM19.532 40v-5.818h1.054v4.934h2.562V40h-3.616Zm6.423 0h-1.972v-5.818h2.011c.578 0 1.074.116 1.49.35.416.23.736.563.96.996.223.434.335.953.335 1.557 0 .606-.113 1.127-.338 1.563-.224.435-.547.77-.97 1.003-.42.232-.925.349-1.516.349Zm-.918-.912h.867c.405 0 .743-.074 1.014-.221.27-.15.474-.373.61-.668.137-.297.205-.669.205-1.114 0-.445-.068-.814-.204-1.108a1.394 1.394 0 0 0-.606-.662c-.265-.147-.594-.221-.988-.221h-.898v3.994Zm7.621-4.906V40h-1.054v-5.818h1.054ZM35.691 40H33.72v-5.818h2.011c.578 0 1.074.116 1.489.35.416.23.736.563.96.996.223.434.335.953.335 1.557 0 .606-.113 1.127-.338 1.563a2.34 2.34 0 0 1-.969 1.003c-.42.232-.926.349-1.517.349Zm-.917-.912h.866c.405 0 .743-.074 1.014-.221a1.42 1.42 0 0 0 .611-.668c.136-.297.205-.669.205-1.114 0-.445-.069-.814-.205-1.108a1.395 1.395 0 0 0-.605-.662c-.265-.147-.595-.221-.989-.221h-.897v3.994Z" fill="url(#b)"/><path d="M37 3.2v.35-.35Zm1 .942h-.35.35Zm-2.35 0a.35.35 0 0 0 .7 0h-.7Zm2.072.652-.245-.25.245.25ZM36.65 5.867a.35.35 0 1 0 .7 0h-.7Zm.417-.785.021.35-.021-.35ZM37 5.151h-.35.35Zm0-1.6c.38 0 .65.284.65.591h.7c0-.733-.625-1.291-1.35-1.291v.7Zm0-.7c-.175 0-.348.032-.51.095l.255.652A.704.704 0 0 1 37 3.551v-.7Zm-.51.095a1.36 1.36 0 0 0-.437.276l.48.51a.655.655 0 0 1 .212-.134l-.255-.652Zm-.437.276a1.291 1.291 0 0 0-.297.419l.64.282a.59.59 0 0 1 .137-.192l-.48-.51Zm-.297.419c-.07.158-.106.329-.106.501h.7a.55.55 0 0 1 .047-.22l-.641-.281Zm1.894.501a.561.561 0 0 1-.173.403l.49.5a1.26 1.26 0 0 0 .383-.903h-.7Zm-.173.403a.674.674 0 0 1-.432.188l.043.698a1.37 1.37 0 0 0 .879-.387l-.49-.5Zm-.127 1.322v-.716h-.7v.716h.7Zm-.305-1.134a.42.42 0 0 0-.395.418h.7a.28.28 0 0 1-.262.28l-.043-.698Z" fill="#5E54FF"/><path fill-rule="evenodd" clip-rule="evenodd" d="M36.997 6.597a.35.35 0 0 1 .003.7h-.003a.35.35 0 0 1 0-.7Z" fill="#5E54FF"/><circle cx="36.999" cy="5.003" r="3.667" stroke="#5E54FF" stroke-width=".7"/><defs><linearGradient id="a" x1="7" y1="16" x2="31" y2="16" gradientUnits="userSpaceOnUse"><stop stop-color="#FF6848"/><stop offset="1" stop-color="#4940E0"/></linearGradient><linearGradient id="b" x1="0" y1="37" x2="39" y2="37" gradientUnits="userSpaceOnUse"><stop stop-color="#FF6848"/><stop offset="1" stop-color="#4940E0"/></linearGradient></defs></svg>